{
	"asset":{
		"generator":"Khronos glTF Blender I/O v3.5.30",
		"version":"2.0"
	},
	"scene":0,
	"scenes":[
		{
			"name":"Scene",
			"nodes":[
				6
			]
		}
	],
	"nodes":[
		{
			"mesh":0,
			"name":"book_a_0",
			"rotation":[
				0,
				0.6985317468643188,
				0,
				0.715579092502594
			],
			"translation":[
				-3.0496103763580322,
				7.024958610534668,
				0.20569562911987305
			]
		},
		{
			"children":[
				0
			],
			"name":"book_a"
		},
		{
			"name":"book_a_open",
			"translation":[
				0,
				4,
				0
			]
		},
		{
			"name":"Lamp.001"
		},
		{
			"children":[
				3
			],
			"name":"Lamp",
			"rotation":[
				0.16907529532909393,
				0.27217087149620056,
				0.7558793425559998,
				0.5709494352340698
			],
			"scale":[
				0.9999976754188538,
				0.9999959468841553,
				0.9999961256980896
			],
			"translation":[
				4.076250076293945,
				1.0054500102996826,
				5.903860092163086
			]
		},
		{
			"children":[
				1,
				2,
				4
			],
			"name":"Root"
		},
		{
			"children":[
				5
			],
			"name":"Sketchfab_model",
			"rotation":[
				-0.70710688829422,
				0,
				0,
				0.7071066498756409
			]
		}
	],
	"materials":[
		{
			"doubleSided":true,
			"name":"book_a",
			"normalTexture":{
				"index":0,
				"scale":0.2631574869155884
			},
			"pbrMetallicRoughness":{
				"baseColorTexture":{
					"index":1
				},
				"metallicFactor":0,
				"roughnessFactor":0.9076558351516724
			}
		}
	],
	"meshes":[
		{
			"name":"book_a_0",
			"primitives":[
				{
					"attributes":{
						"POSITION":0,
						"TEXCOORD_0":1,
						"NORMAL":2
					},
					"indices":3,
					"material":0
				}
			]
		}
	],
	"textures":[
		{
			"sampler":0,
			"source":0
		},
		{
			"sampler":0,
			"source":1
		}
	],
	"images":[
		{
			"bufferView":4,
			"mimeType":"image/png",
			"name":"book_a_normal"
		},
		{
			"bufferView":5,
			"mimeType":"image/png",
			"name":"book_a_baseColor"
		}
	],
	"accessors":[
		{
			"bufferView":0,
			"componentType":5126,
			"count":457,
			"max":[
				0.022770000621676445,
				-0.003010000102221966,
				4.030129909515381
			],
			"min":[
				-20.074800491333008,
				-13.970820426940918,
				-0.029980000108480453
			],
			"type":"VEC3"
		},
		{
			"bufferView":1,
			"componentType":5126,
			"count":457,
			"type":"VEC2"
		},
		{
			"bufferView":2,
			"componentType":5126,
			"count":457,
			"type":"VEC3"
		},
		{
			"bufferView":3,
			"componentType":5123,
			"count":1680,
			"type":"SCALAR"
		}
	],
	"bufferViews":[
		{
			"buffer":0,
			"byteLength":5484,
			"byteOffset":0,
			"target":34962
		},
		{
			"buffer":0,
			"byteLength":3656,
			"byteOffset":5484,
			"target":34962
		},
		{
			"buffer":0,
			"byteLength":5484,
			"byteOffset":9140,
			"target":34962
		},
		{
			"buffer":0,
			"byteLength":3360,
			"byteOffset":14624,
			"target":34963
		},
		{
			"buffer":0,
			"byteLength":228096,
			"byteOffset":17984
		},
		{
			"buffer":0,
			"byteLength":77752,
			"byteOffset":246080
		}
	],
	"samplers":[
		{
			"magFilter":9729,
			"minFilter":9987
		}
	],
	"buffers":[
		{
			"byteLength":323832,
			"uri":"data:application/octet-stream;base64,"
		}
	]
}
